grf
version=1
nRows=17
nColumns=37
inDegrees=no
endheader
time	ground_force_1_vx	ground_force_1_vy	ground_force_1_vz	ground_force_1_px	ground_force_1_py	ground_force_1_pz	ground_moment_1_mx	ground_moment_1_my	ground_moment_1_mz	ground_force_2_vx	ground_force_2_vy	ground_force_2_vz	ground_force_2_px	ground_force_2_py	ground_force_2_pz	ground_moment_2_mx	ground_moment_2_my	ground_moment_2_mz	ground_force_3_vx	ground_force_3_vy	ground_force_3_vz	ground_force_3_px	ground_force_3_py	ground_force_3_pz	ground_moment_3_mx	ground_moment_3_my	ground_moment_3_mz	ground_force_4_vx	ground_force_4_vy	ground_force_4_vz	ground_force_4_px	ground_force_4_py	ground_force_4_pz	ground_moment_4_mx	ground_moment_4_my	ground_moment_4_mz
      0.00000000	      0.00000000	     -0.00000000	      0.00000000	      0.00000000	      0.00000000	      0.00000000	      0.00000000	      0.00000000	      0.00000000	     -0.46923763	     60.81362915	   -414.89465332	   -388.98600189	  -1200.63748034	      0.00000000	      0.00000000	      0.00000000	   2190.33897487	      2.08661391	    -59.81681842	   -398.04794312	   -398.90384021	   -715.09668922	      0.00000000	     -0.00000000	     -0.00000000	  -2804.63614235	      0.00000000	     -0.00000000	      0.00000000	      0.00000000	      0.00000000	      0.00000000	      0.00000000	      0.00000000	      0.00000000
      0.01000000	      0.00000000	     -0.00000000	      0.00000000	      0.00000000	      0.00000000	      0.00000000	      0.00000000	      0.00000000	      0.00000000	     -0.62771183	     61.25891495	   -414.81625366	   -388.50545193	  -1200.71512369	      0.00000000	      0.00000000	      0.00000000	   2183.51831434	      2.04034284	    -59.67897433	   -398.27728271	   -399.18349453	   -715.75410967	      0.00000000	      0.00000000	     -0.00000000	  -2899.99710628	      0.00000000	     -0.00000000	      0.00000000	      0.00000000	      0.00000000	      0.00000000	      0.00000000	      0.00000000	      0.00000000
      0.02000000	      0.00000000	     -0.00000000	      0.00000000	      0.00000000	      0.00000000	      0.00000000	      0.00000000	      0.00000000	      0.00000000	     -0.58136290	     60.99121475	   -412.68487549	   -389.17146479	  -1199.85147326	      0.00000000	     -0.00000000	      0.00000000	   2104.76377337	      2.23747160	    -59.77416249	   -397.41210938	   -399.44311940	   -715.35380873	      0.00000000	      0.00000000	     -0.00000000	  -2903.86665757	      0.00000000	     -0.00000000	      0.00000000	      0.00000000	      0.00000000	      0.00000000	      0.00000000	      0.00000000	      0.00000000
      0.03000000	      0.00000000	     -0.00000000	      0.00000000	      0.00000000	      0.00000000	      0.00000000	      0.00000000	      0.00000000	      0.00000000	     -0.53526306	     61.12049866	   -413.24188232	   -388.94206398	  -1200.77850708	      0.00000000	      0.00000000	      0.00000000	   2371.11464141	      1.83698848	    -59.68263261	   -396.11840820	   -399.16662096	   -715.61866275	      0.00000000	      0.00000000	     -0.00000000	  -2971.62065493	      0.00000000	     -0.00000000	      0.00000000	      0.00000000	      0.00000000	      0.00000000	      0.00000000	      0.00000000	      0.00000000
      0.04000000	      0.00000000	     -0.00000000	      0.00000000	      0.00000000	      0.00000000	      0.00000000	      0.00000000	      0.00000000	      0.00000000	     -0.77997977	     61.56621552	   -413.75515747	   -389.35686387	  -1200.08615232	      0.00000000	      0.00000000	      0.00000000	   2305.04628105	      1.77421051	    -59.39770523	   -395.41961670	   -399.09489117	   -716.00370358	      0.00000000	      0.00000000	     -0.00000000	  -2759.49281056	      0.00000000	     -0.00000000	      0.00000000	      0.00000000	      0.00000000	      0.00000000	      0.00000000	      0.00000000	      0.00000000
      0.05000000	      0.00000000	     -0.00000000	      0.00000000	      0.00000000	      0.00000000	      0.00000000	      0.00000000	      0.00000000	      0.00000000	     -1.02481449	     61.19134140	   -413.83639526	   -388.91413774	  -1200.21007410	      0.00000000	     -0.00000000	      0.00000000	   2236.63477051	      2.10374074	    -59.44049854	   -395.32937622	   -399.06732558	   -715.65029082	      0.00000000	      0.00000000	     -0.00000000	  -2820.02134190	      0.00000000	     -0.00000000	      0.00000000	      0.00000000	      0.00000000	      0.00000000	      0.00000000	      0.00000000	      0.00000000
      0.06000000	      0.00000000	     -0.00000000	      0.00000000	      0.00000000	      0.00000000	      0.00000000	      0.00000000	      0.00000000	      0.00000000	     -1.07244754	     61.29895401	   -414.46047974	   -388.75525816	  -1201.22386428	      0.00000000	      0.00000000	      0.00000000	   2120.96962737	      1.86292127	    -59.68282716	   -395.23092651	   -399.20534621	   -715.70750833	      0.00000000	     -0.00000000	     -0.00000000	  -2876.85697636	      0.00000000	     -0.00000000	      0.00000000	      0.00000000	      0.00000000	      0.00000000	      0.00000000	      0.00000000	      0.00000000
      0.07000000	      0.00000000	     -0.00000000	      0.00000000	      0.00000000	      0.00000000	      0.00000000	      0.00000000	      0.00000000	      0.00000000	     -0.87105632	     61.27798843	   -415.86605835	   -388.80383301	  -1201.33216299	      0.00000000	      0.00000000	      0.00000000	   2144.25934009	      1.48738842	    -59.46307005	   -394.80905151	   -399.73073050	   -715.87464220	      0.00000000	     -0.00000000	     -0.00000000	  -2764.95154265	      0.00000000	     -0.00000000	      0.00000000	      0.00000000	      0.00000000	      0.00000000	      0.00000000	      0.00000000	      0.00000000
      0.08000000	      0.00000000	     -0.00000000	      0.00000000	      0.00000000	      0.00000000	      0.00000000	      0.00000000	      0.00000000	      0.00000000	     -1.16115868	     61.36699295	   -414.54354858	   -388.99126288	  -1201.44719994	      0.00000000	      0.00000000	      0.00000000	   2165.16917938	      1.72898725	    -59.66216675	   -396.54724121	   -399.14660800	   -715.08004914	      0.00000000	     -0.00000000	     -0.00000000	  -2805.75820172	      0.00000000	     -0.00000000	      0.00000000	      0.00000000	      0.00000000	      0.00000000	      0.00000000	      0.00000000	      0.00000000
      0.09000000	      0.00000000	     -0.00000000	      0.00000000	      0.00000000	      0.00000000	      0.00000000	      0.00000000	      0.00000000	      0.00000000	     -0.93840617	     61.58911133	   -413.84194946	   -389.25233274	  -1200.52048854	      0.00000000	     -0.00000000	      0.00000000	   2263.14694179	      1.44046073	    -59.41805661	   -395.16229248	   -399.97732989	   -715.09411871	      0.00000000	      0.00000000	     -0.00000000	  -2828.49063257	      0.00000000	     -0.00000000	      0.00000000	      0.00000000	      0.00000000	      0.00000000	      0.00000000	      0.00000000	      0.00000000
      0.10000000	      0.00000000	     -0.00000000	      0.00000000	      0.00000000	      0.00000000	      0.00000000	      0.00000000	      0.00000000	      0.00000000	     -1.64907289	     61.41172791	   -413.39886475	   -389.30880877	  -1200.99198155	      0.00000000	     -0.00000000	      0.00000000	   2063.61423468	      1.64054554	    -59.41930785	   -395.50976562	   -399.93615195	   -715.81864895	      0.00000000	     -0.00000000	     -0.00000000	  -2806.31783840	      0.00000000	     -0.00000000	      0.00000000	      0.00000000	      0.00000000	      0.00000000	      0.00000000	      0.00000000	      0.00000000
      0.11000000	      0.00000000	     -0.00000000	      0.00000000	      0.00000000	      0.00000000	      0.00000000	      0.00000000	      0.00000000	      0.00000000	     -1.09356570	     60.98762512	   -412.24987793	   -389.80157298	  -1200.30915793	      0.00000000	      0.00000000	      0.00000000	   2138.10566000	      1.59588114	    -59.63854231	   -396.11428833	   -399.93645865	   -715.52912240	      0.00000000	      0.00000000	     -0.00000000	  -2934.02320169	      0.00000000	     -0.00000000	      0.00000000	      0.00000000	      0.00000000	      0.00000000	      0.00000000	      0.00000000	      0.00000000
      0.12000000	      0.00000000	     -0.00000000	      0.00000000	      0.00000000	      0.00000000	      0.00000000	      0.00000000	      0.00000000	      0.00000000	     -1.36054528	     61.58876801	   -414.19009399	   -389.05998999	  -1200.64401167	      0.00000000	      0.00000000	      0.00000000	   2194.74865873	      1.26428837	    -59.30834591	   -395.59136963	   -400.26132046	   -715.29157886	      0.00000000	      0.00000000	     -0.00000000	  -2758.63193039	      0.00000000	     -0.00000000	      0.00000000	      0.00000000	      0.00000000	      0.00000000	      0.00000000	      0.00000000	      0.00000000
      0.13000000	      0.00000000	     -0.00000000	      0.00000000	      0.00000000	      0.00000000	      0.00000000	      0.00000000	      0.00000000	      0.00000000	     -1.53890395	     61.43315506	   -413.74978638	   -389.60770299	  -1200.83186167	      0.00000000	      0.00000000	      0.00000000	   2165.99513709	      1.70778030	    -59.32958236	   -395.76254272	   -400.56111275	   -715.30465525	      0.00000000	      0.00000000	     -0.00000000	  -2910.61579714	      0.00000000	     -0.00000000	      0.00000000	      0.00000000	      0.00000000	      0.00000000	      0.00000000	      0.00000000	      0.00000000
      0.14000000	      0.00000000	     -0.00000000	      0.00000000	      0.00000000	      0.00000000	      0.00000000	      0.00000000	      0.00000000	      0.00000000	     -1.22649372	     61.36618042	   -412.95465088	   -389.27430216	  -1200.71626532	      0.00000000	      0.00000000	      0.00000000	   2208.21562311	      1.46366199	    -59.10932172	   -396.28756714	   -399.98492484	   -714.92335662	      0.00000000	      0.00000000	     -0.00000000	  -2759.51369175	      0.00000000	     -0.00000000	      0.00000000	      0.00000000	      0.00000000	      0.00000000	      0.00000000	      0.00000000	      0.00000000
      0.15000000	      0.00000000	     -0.00000000	      0.00000000	      0.00000000	      0.00000000	      0.00000000	      0.00000000	      0.00000000	      0.00000000	     -1.40473807	     61.00910950	   -413.74945068	   -389.37571345	  -1200.68711161	      0.00000000	      0.00000000	      0.00000000	   2213.74553758	      1.66335019	    -59.02093902	   -396.46188354	   -400.02281046	   -714.71104699	      0.00000000	      0.00000000	     -0.00000000	  -2790.50200560	      0.00000000	     -0.00000000	      0.00000000	      0.00000000	      0.00000000	      0.00000000	      0.00000000	      0.00000000	      0.00000000
      0.16000000	      0.00000000	     -0.00000000	      0.00000000	      0.00000000	      0.00000000	      0.00000000	      0.00000000	      0.00000000	      0.00000000	     -1.15973663	     60.96519470	   -414.10485840	   -389.44129359	  -1201.72028068	      0.00000000	      0.00000000	      0.00000000	   2091.19341458	      1.37483161	    -59.44049847	   -397.51123047	   -400.38439223	   -715.06984111	      0.00000000	      0.00000000	     -0.00000000	  -2785.76001091	      0.00000000	     -0.00000000	      0.00000000	      0.00000000	      0.00000000	      0.00000000	      0.00000000	      0.00000000	      0.00000000
